Coordinates
version=1
nRows=5
nColumns=46
inDegrees=yes

Units are S.I. units (second, meters, Newtons, ...)
Angles are in degrees.

endheader
time	pelvis_tilt	pelvis_list	pelvis_rotation	pelvis_tx	pelvis_ty	pelvis_tz	bb_angle	bb_tx	bb_ty	bb_tz	hip_flexion_r	hip_adduction_r	hip_rotation_r	knee_angle_r	knee_angle_r_beta	ankle_angle_r	subtalar_angle_r	mtp_angle_r	crank_angle_r	hip_flexion_l	hip_adduction_l	hip_rotation_l	knee_angle_l	knee_angle_l_beta	ankle_angle_l	subtalar_angle_l	mtp_angle_l	crank_angle_l	lumbar_extension	lumbar_bending	lumbar_rotation	arm_flex_r	arm_add_r	arm_rot_r	elbow_flex_r	pro_sup_r	wrist_flex_r	wrist_dev_r	arm_flex_l	arm_add_l	arm_rot_l	elbow_flex_l	pro_sup_l	wrist_flex_l	wrist_dev_l
      0.00000000	    -23.69212547	     -4.89693840	     -5.62744799	      0.16610762	      1.10683286	     -0.22641718	      0.00000000	      0.50000000	      0.00000000	      0.25000000	     89.22840120	      2.87017354	      0.45086163	     95.32283503	      1.66369732	     27.49503088	     -3.72721563	      0.00000000	      0.00000000	     37.40069039	    -11.00575580	     -0.96032862	     32.20446043	      0.56207387	     15.84820828	     -1.40371067	      0.00000000	      0.00000000	    -47.17819366	      0.92376327	      7.09196531	     89.34536090	     -4.95368994	     43.88079665	     31.03937356	     29.89137549	      0.00000000	      0.00000000	     89.72561852	     -3.33316186	     37.14803552	     27.39442115	     25.38155251	      0.00000000	      0.00000000
      0.00500000	    -24.09752440	     -4.94647519	     -5.60552918	      0.16585477	      1.10600090	     -0.22653960	      0.00000000	      0.50000000	      0.00000000	      0.25000000	     89.58333704	      2.86227035	      0.39736528	     94.99121183	      1.65790941	     27.40174203	     -3.79894112	      0.00000000	      0.00000000	     37.81068281	    -10.98242756	     -0.65979339	     32.41624493	      0.56577021	     16.39260261	     -1.73624081	      0.00000000	      0.00000000	    -46.59867098	      1.08970068	      6.92115558	     89.39928094	     -4.76186023	     45.57075921	     30.12410167	     30.28115463	      0.00000000	      0.00000000	     89.72537664	     -3.56474627	     38.18287909	     26.63274194	     25.66678766	      0.00000000	      0.00000000
      0.01000000	    -24.10480326	     -4.99026535	     -5.59978643	      0.16592241	      1.10591903	     -0.22669982	      0.00000000	      0.50000000	      0.00000000	      0.25000000	     89.48158097	      2.83036226	      0.34422483	     94.66129386	      1.65215125	     27.37493219	     -3.70105357	      0.00000000	      0.00000000	     37.69092352	    -10.96406410	     -0.53501312	     32.48188026	      0.56691576	     17.01337222	     -1.81596808	      0.00000000	      0.00000000	    -46.58277197	      1.16407441	      6.98670963	     89.40399876	     -4.84501458	     45.65013111	     30.08648727	     30.64729779	      0.00000000	      0.00000000	     89.72779474	     -3.59303271	     38.44192763	     26.53302705	     25.86606475	      0.00000000	      0.00000000
      0.01500000	    -24.08219152	     -4.93136695	     -5.68868485	      0.16624199	      1.10656712	     -0.22655590	      0.00000000	      0.50000000	      0.00000000	      0.25000000	     89.26323364	      3.05219699	      0.42335531	     94.26827002	      1.64529169	     27.33078189	     -4.05817430	      0.00000000	      0.00000000	     36.97873129	    -10.83925065	     -0.21240247	     31.69286695	      0.55314488	     17.63850749	     -2.96177627	      0.00000000	      0.00000000	    -46.66216082	      0.83413025	      7.10362238	     89.40020735	     -5.66494073	     46.26113214	     30.23824606	     33.05678563	      0.00000000	      0.00000000	     89.72682867	     -3.79013537	     39.05194359	     26.77756497	     27.83592194	      0.00000000	      0.00000000
      0.02000000	    -24.11858229	     -4.94660927	     -5.76797912	      0.16666200	      1.10685532	     -0.22618392	      0.00000000	      0.50000000	      0.00000000	      0.25000000	     89.10946974	      3.20713752	      0.42047187	     93.79730580	      1.63707182	     27.20735721	     -4.34361932	      0.00000000	      0.00000000	     36.39416130	    -10.65405513	      0.24573532	     30.86718562	      0.53873402	     17.73149159	     -3.08994972	      0.00000000	      0.00000000	    -46.62856569	      0.64299001	      7.11423820	     89.37563575	     -5.65409971	     45.43523488	     30.01827473	     33.23494499	      0.00000000	      0.00000000	     89.73966084	     -3.01188962	     38.24202709	     26.12913765	     27.89382932	      0.00000000	      0.00000000
